<svg width="465" height="465" viewBox="0 0 465 465" fill="none" xmlns="http://www.w3.org/2000/svg">
<path d="M329 316H137V424.336H329V316Z" fill="black"/>
<rect x="12.5" y="12.5" width="440" height="310" stroke="black" stroke-width="25"/>
<rect x="68" y="424" width="329" height="41" fill="black"/>
<g clip-path="url(#clip0_260_612)">
<path d="M212.432 144.343C211.915 144.86 211.425 145.398 210.958 145.958C211.425 146.519 211.915 147.057 212.432 147.574C213.677 148.814 215.053 149.918 216.538 150.875C216.266 149.276 216.119 147.639 216.119 145.964C216.119 144.289 216.266 142.646 216.538 141.047C215.053 141.999 213.677 143.103 212.432 144.349V144.343ZM225.61 167.567C222.526 164.728 220.046 161.242 218.398 157.32C214.477 155.672 210.985 153.192 208.151 150.108C206.302 153.551 205.252 157.483 205.252 161.671C205.252 164.325 205.677 166.871 206.454 169.258C208.842 170.036 211.393 170.46 214.047 170.46C218.235 170.46 222.167 169.411 225.61 167.561V167.567ZM218.398 134.597C220.046 130.67 222.526 127.184 225.61 124.345C222.167 122.495 218.235 121.446 214.047 121.446C211.393 121.446 208.847 121.87 206.46 122.648C205.682 125.035 205.258 127.586 205.258 130.24C205.258 134.428 206.307 138.36 208.157 141.803C210.996 138.719 214.482 136.239 218.403 134.591L218.398 134.597ZM229.76 170.749C225.213 173.637 219.828 175.312 214.047 175.312C212.372 175.312 210.729 175.165 209.13 174.893C210.082 176.378 211.186 177.754 212.432 178.999C216.875 183.437 222.983 186.179 229.76 186.179C236.536 186.179 242.644 183.437 247.088 178.999C248.328 177.754 249.432 176.378 250.389 174.893C248.79 175.165 247.153 175.312 245.478 175.312C239.696 175.312 234.306 173.631 229.765 170.749H229.76ZM200.82 125.329C199.335 126.281 197.959 127.385 196.713 128.63C192.275 133.074 189.534 139.187 189.534 145.964C189.534 152.741 192.275 158.848 196.713 163.292C197.959 164.532 199.335 165.636 200.82 166.593C200.548 164.994 200.401 163.352 200.401 161.677C200.401 155.895 202.082 150.505 204.964 145.964C202.076 141.422 200.401 136.033 200.401 130.251C200.401 128.576 200.548 126.934 200.82 125.335V125.329ZM229.76 127.156C229.199 127.624 228.661 128.114 228.144 128.63C226.899 129.876 225.795 131.252 224.843 132.737C226.442 132.465 228.084 132.318 229.76 132.318C231.435 132.318 233.077 132.465 234.676 132.737C233.725 131.252 232.621 129.876 231.375 128.63C230.858 128.114 230.32 127.624 229.76 127.156ZM238.554 145.958C238.554 143.304 238.13 140.759 237.352 138.366C234.965 137.588 232.414 137.164 229.76 137.164C227.105 137.164 224.56 137.588 222.167 138.366C221.389 140.754 220.965 143.304 220.965 145.958C220.965 148.613 221.389 151.158 222.167 153.546C224.555 154.323 227.105 154.747 229.76 154.747C232.414 154.747 234.959 154.323 237.352 153.546C238.13 151.158 238.554 148.607 238.554 145.958ZM245.472 121.451C241.285 121.451 237.352 122.501 233.909 124.35C236.993 127.189 239.473 130.675 241.121 134.602C245.043 136.25 248.534 138.725 251.368 141.814C253.217 138.371 254.267 134.439 254.267 130.251C254.267 127.597 253.843 125.046 253.065 122.659C250.677 121.881 248.127 121.457 245.478 121.457L245.472 121.451ZM224.843 159.186C225.795 160.67 226.899 162.046 228.144 163.292C228.661 163.809 229.199 164.298 229.76 164.766C230.32 164.298 230.858 163.809 231.375 163.292C232.615 162.046 233.719 160.67 234.676 159.186C233.077 159.458 231.435 159.604 229.76 159.604C228.084 159.604 226.442 159.458 224.848 159.186H224.843ZM258.694 125.329C258.966 126.928 259.113 128.571 259.113 130.246C259.113 136.027 257.432 141.417 254.544 145.958C257.432 150.5 259.108 155.89 259.113 161.671C259.113 163.346 258.966 164.989 258.694 166.588C260.179 165.636 261.555 164.532 262.8 163.287C267.238 158.843 269.98 152.73 269.98 145.958C269.98 139.182 267.238 133.069 262.8 128.625C261.555 127.385 260.179 126.281 258.694 125.324V125.329ZM247.088 147.574C247.604 147.057 248.094 146.519 248.562 145.958C248.094 145.398 247.604 144.86 247.088 144.343C245.842 143.103 244.466 141.999 242.981 141.047C243.253 142.646 243.4 144.283 243.4 145.964C243.4 147.639 243.253 149.276 242.981 150.875C244.466 149.923 245.842 148.819 247.088 147.579V147.574ZM241.121 157.32C239.473 161.242 236.993 164.733 233.909 167.567C237.352 169.416 241.285 170.466 245.472 170.466C248.127 170.466 250.672 170.042 253.059 169.264C253.837 166.876 254.261 164.325 254.261 161.677C254.261 157.489 253.212 153.557 251.363 150.114C248.524 153.198 245.037 155.678 241.116 157.325L241.121 157.32ZM290.479 115.148C298.359 128.87 299.251 143.511 295.439 158.598C293.105 167.833 289.037 176.269 283.125 183.753C277.414 190.981 275.511 199.237 275.816 208.293C276.251 221.264 279.476 233.621 283.484 245.842C283.696 246.484 284.066 247.12 284.066 247.757C284.066 248.295 284.61 248.834 284.371 249.372L197.698 249.22C196.675 245.396 195.044 240.251 194.059 236.411C193.695 234.992 193.358 233.567 192.993 232.147C192.226 229.161 190.192 227.59 187.217 227.356C183.019 227.029 178.793 227.008 174.599 226.611C172.44 226.404 170.254 225.887 168.22 225.126C163.7 223.44 160.469 217.729 161.312 212.981C161.573 211.534 162.215 210.033 163.069 208.831C164.168 207.286 164.135 206.237 162.563 205.182C161.96 204.779 161.443 204.235 160.937 203.713C158.691 201.412 158.62 199.286 160.681 196.779C160.872 196.545 161.068 196.316 161.138 196.229C159.898 194.625 158.56 193.194 157.619 191.53C157.228 190.839 157.494 189.583 157.831 188.729C158.245 187.669 159.126 186.809 159.653 185.781C160.426 184.286 159.974 183.464 158.435 182.855C156.798 182.203 155.139 181.539 153.622 180.653C149.989 178.542 148.993 174.893 151.071 171.243C151.936 169.721 153.1 168.35 154.198 166.963C157.418 162.9 160.665 158.854 163.923 154.824C165.973 152.284 166.419 149.564 165.935 146.274C164.478 136.332 166.126 126.7 170.732 117.823C177.699 104.395 188.876 95.4754 202.691 89.7973C213.65 85.2994 225.137 84.4346 236.863 85.2994C246.62 86.0228 256.105 87.7686 265.128 91.6573C276.348 96.4924 284.485 104.727 290.462 115.148H290.479ZM274.831 145.964C274.831 133.776 267.407 123.328 256.834 118.884C252.39 108.311 241.943 100.893 229.76 100.893C217.577 100.893 207.129 108.316 202.685 118.889C192.112 123.333 184.688 133.781 184.688 145.964C184.688 158.147 192.112 168.595 202.685 173.038C207.123 183.611 217.571 191.03 229.76 191.035C241.943 191.035 252.396 183.611 256.834 173.044C267.407 168.6 274.831 158.152 274.831 145.969V145.964ZM229.76 121.174C234.306 118.286 239.691 116.611 245.472 116.611C247.148 116.611 248.785 116.758 250.384 117.029C249.432 115.545 248.328 114.169 247.082 112.923C242.639 108.485 236.525 105.744 229.754 105.744C222.977 105.744 216.87 108.485 212.426 112.923C211.186 114.169 210.082 115.545 209.13 117.029C210.729 116.758 212.366 116.611 214.047 116.611C219.828 116.611 225.218 118.291 229.76 121.174ZM292.872 263.959H162.465V271.231H292.872V263.959Z" fill="black"/>
</g>
<circle cx="234" cy="169" r="118" stroke="black" stroke-width="18"/>
<rect x="333.985" y="225.542" width="86.2426" height="32.9554" transform="rotate(37.7633 333.985 225.542)" fill="black"/>
<defs>
<clipPath id="clip0_260_612">
<rect width="147.761" height="165" fill="white" transform="translate(150 85)"/>
</clipPath>
</defs>
</svg>
